<svg width="100" height="102" viewBox="0 0 100 102" fill="none" xmlns="http://www.w3.org/2000/svg">
<circle cx="50" cy="52" r="49.5" fill="white" stroke="#6CF52B"/>
<path d="M16.5227 64.4545V79H14.7614V64.4545H16.5227ZM21.5032 72.4375V79H19.8271V68.0909H21.4464V69.7955H21.5884C21.8441 69.2415 22.2324 68.7964 22.7532 68.4602C23.274 68.1193 23.9464 67.9489 24.7702 67.9489C25.5089 67.9489 26.1552 68.1004 26.7092 68.4034C27.2631 68.7017 27.694 69.1562 28.0018 69.767C28.3095 70.3731 28.4634 71.1402 28.4634 72.0682V79H26.7873V72.1818C26.7873 71.3248 26.5647 70.6572 26.1197 70.179C25.6746 69.696 25.0638 69.4545 24.2873 69.4545C23.7522 69.4545 23.274 69.5705 22.8526 69.8026C22.436 70.0346 22.1069 70.3731 21.8654 70.8182C21.6239 71.2633 21.5032 71.803 21.5032 72.4375ZM40.0561 68.0909L36.022 79H34.3175L30.2834 68.0909H32.1016L35.1129 76.7841H35.2266L38.2379 68.0909H40.0561ZM42.2685 79V68.0909H43.9446V79H42.2685ZM43.1207 66.2727C42.794 66.2727 42.5123 66.1615 42.2756 65.9389C42.0436 65.7164 41.9276 65.4489 41.9276 65.1364C41.9276 64.8239 42.0436 64.5563 42.2756 64.3338C42.5123 64.1113 42.794 64 43.1207 64C43.4474 64 43.7268 64.1113 43.9588 64.3338C44.1955 64.5563 44.3139 64.8239 44.3139 65.1364C44.3139 65.4489 44.1955 65.7164 43.9588 65.9389C43.7268 66.1615 43.4474 66.2727 43.1207 66.2727ZM54.7418 70.5341L53.2362 70.9602C53.1415 70.7093 53.0018 70.4654 52.8171 70.2287C52.6372 69.9872 52.391 69.7884 52.0785 69.6321C51.766 69.4759 51.3659 69.3977 50.8782 69.3977C50.2106 69.3977 49.6542 69.5516 49.2092 69.8594C48.7688 70.1624 48.5487 70.5483 48.5487 71.017C48.5487 71.4337 48.7002 71.7628 49.0032 72.0043C49.3062 72.2457 49.7797 72.447 50.4237 72.608L52.043 73.0057C53.0183 73.2424 53.7451 73.6046 54.2234 74.0923C54.7016 74.5753 54.9407 75.1979 54.9407 75.9602C54.9407 76.5852 54.7608 77.1439 54.4009 77.6364C54.0458 78.1288 53.5487 78.517 52.9094 78.8011C52.2702 79.0852 51.5269 79.2273 50.6793 79.2273C49.5666 79.2273 48.6457 78.9858 47.9165 78.5028C47.1874 78.0199 46.7257 77.3144 46.5316 76.3864L48.1225 75.9886C48.274 76.5758 48.5605 77.0161 48.9819 77.3097C49.408 77.6032 49.9644 77.75 50.6509 77.75C51.4322 77.75 52.0524 77.5843 52.5117 77.2528C52.9757 76.9167 53.2077 76.5142 53.2077 76.0455C53.2077 75.6667 53.0752 75.3494 52.81 75.0938C52.5449 74.8333 52.1377 74.6392 51.5884 74.5114L49.7702 74.0852C48.7712 73.8485 48.0373 73.4815 47.5685 72.9844C47.1045 72.4825 46.8725 71.8551 46.8725 71.1023C46.8725 70.4867 47.0453 69.9422 47.391 69.4688C47.7414 68.9953 48.2172 68.6236 48.8185 68.3537C49.4246 68.0838 50.1112 67.9489 50.8782 67.9489C51.9577 67.9489 52.8053 68.1856 53.4208 68.6591C54.0411 69.1326 54.4814 69.7576 54.7418 70.5341ZM57.4638 79V68.0909H59.1399V79H57.4638ZM58.3161 66.2727C57.9893 66.2727 57.7076 66.1615 57.4709 65.9389C57.2389 65.7164 57.1229 65.4489 57.1229 65.1364C57.1229 64.8239 57.2389 64.5563 57.4709 64.3338C57.7076 64.1113 57.9893 64 58.3161 64C58.6428 64 58.9221 64.1113 59.1541 64.3338C59.3909 64.5563 59.5092 64.8239 59.5092 65.1364C59.5092 65.4489 59.3909 65.7164 59.1541 65.9389C58.9221 66.1615 58.6428 66.2727 58.3161 66.2727ZM62.4371 79V64.4545H64.1133V69.8239H64.2553C64.3784 69.6345 64.5489 69.393 64.7667 69.0994C64.9892 68.8011 65.3065 68.536 65.7184 68.304C66.1351 68.0672 66.6985 67.9489 67.4087 67.9489C68.3273 67.9489 69.137 68.1785 69.8377 68.6378C70.5385 69.0971 71.0853 69.7481 71.4783 70.5909C71.8713 71.4337 72.0678 72.428 72.0678 73.5739C72.0678 74.7292 71.8713 75.7306 71.4783 76.5781C71.0853 77.4209 70.5408 78.0743 69.8448 78.5384C69.1488 78.9976 68.3462 79.2273 67.4371 79.2273C66.7364 79.2273 66.1753 79.1113 65.7539 78.8793C65.3325 78.6425 65.0082 78.375 64.7809 78.0767C64.5536 77.7737 64.3784 77.5227 64.2553 77.3239H64.0565V79H62.4371ZM64.0849 73.5455C64.0849 74.3693 64.2056 75.0961 64.4471 75.7259C64.6886 76.3509 65.0413 76.8409 65.5053 77.196C65.9693 77.5464 66.5375 77.7216 67.2099 77.7216C67.9106 77.7216 68.4954 77.5369 68.9641 77.1676C69.4376 76.7936 69.7927 76.2917 70.0295 75.6619C70.271 75.0275 70.3917 74.322 70.3917 73.5455C70.3917 72.7784 70.2733 72.0871 70.0366 71.4716C69.8046 70.8513 69.4518 70.3613 68.9783 70.0014C68.5096 69.6368 67.9201 69.4545 67.2099 69.4545C66.5281 69.4545 65.9551 69.6274 65.4911 69.973C65.0271 70.3139 64.6767 70.7921 64.44 71.4077C64.2032 72.0185 64.0849 72.7311 64.0849 73.5455ZM76.3079 64.4545V79H74.6317V64.4545H76.3079ZM83.9517 79.2273C82.9006 79.2273 81.9938 78.9953 81.2315 78.5312C80.474 78.0625 79.8892 77.4091 79.4773 76.571C79.0701 75.7282 78.8665 74.7481 78.8665 73.6307C78.8665 72.5133 79.0701 71.5284 79.4773 70.6761C79.8892 69.8191 80.4621 69.1515 81.196 68.6733C81.9347 68.1903 82.7964 67.9489 83.7812 67.9489C84.3494 67.9489 84.9105 68.0436 85.4645 68.233C86.0185 68.4223 86.5227 68.7301 86.9773 69.1562C87.4318 69.5777 87.794 70.1364 88.0639 70.8324C88.3338 71.5284 88.4688 72.3854 88.4688 73.4034V74.1136H80.0597V72.6648H86.7642C86.7642 72.0492 86.6411 71.5 86.3949 71.017C86.1534 70.5341 85.8078 70.1529 85.358 69.8736C84.9129 69.5942 84.3873 69.4545 83.7812 69.4545C83.1136 69.4545 82.536 69.6203 82.0483 69.9517C81.5653 70.2784 81.1937 70.7045 80.9332 71.2301C80.6728 71.7557 80.5426 72.3191 80.5426 72.9205V73.8864C80.5426 74.7102 80.6847 75.4086 80.9688 75.9815C81.2576 76.5497 81.6577 76.983 82.169 77.2812C82.6804 77.5748 83.2746 77.7216 83.9517 77.7216C84.392 77.7216 84.7898 77.66 85.1449 77.5369C85.5047 77.4091 85.8149 77.2197 86.0753 76.9688C86.3357 76.7131 86.5369 76.3958 86.679 76.017L88.2983 76.4716C88.1278 77.0208 87.8414 77.5038 87.4389 77.9205C87.0365 78.3324 86.5393 78.6544 85.9474 78.8864C85.3556 79.1136 84.6903 79.2273 83.9517 79.2273Z" fill="#6CF52B"/>
<path d="M49.7265 42.6562C51.7571 42.6562 53.7045 41.8496 55.1403 40.4138C56.5761 38.978 57.3828 37.0306 57.3828 35C57.3828 34.7758 57.3725 34.5536 57.3534 34.3342L49.0607 42.6269C49.2801 42.646 49.5016 42.6562 49.7265 42.6562ZM75.0687 11.3176L72.1484 8.39999C72.0459 8.29751 71.9068 8.23994 71.7618 8.23994C71.6169 8.23994 71.4778 8.29751 71.3753 8.39999L63.9022 15.8751C59.7797 13.7683 55.1456 12.7148 50 12.7148C36.8613 12.7148 27.0586 19.5576 20.5918 33.2432C20.3318 33.7936 20.197 34.3947 20.197 35.0034C20.197 35.6121 20.3318 36.2133 20.5918 36.7637C23.1757 42.2064 26.2872 46.5689 29.9262 49.8511L22.6945 57.0801C22.592 57.1826 22.5344 57.3217 22.5344 57.4666C22.5344 57.6116 22.592 57.7507 22.6945 57.8532L25.6128 60.7715C25.7153 60.874 25.8544 60.9315 25.9993 60.9315C26.1443 60.9315 26.2834 60.874 26.3859 60.7715L75.0687 12.0914C75.1196 12.0406 75.1599 11.9803 75.1874 11.9139C75.2149 11.8475 75.2291 11.7764 75.2291 11.7045C75.2291 11.6326 75.2149 11.5615 75.1874 11.4951C75.1599 11.4287 75.1196 11.3684 75.0687 11.3176ZM37.6953 35C37.6951 32.9219 38.2332 30.8792 39.2571 29.0709C40.281 27.2626 41.7558 25.7503 43.5379 24.6813C45.32 23.6124 47.3486 23.0233 49.426 22.9714C51.5034 22.9195 53.5589 23.4066 55.3922 24.3851L52.0685 27.7088C50.7281 27.2796 49.2954 27.2279 47.9276 27.5594C46.5598 27.8909 45.3097 28.5927 44.3145 29.5879C43.3193 30.5831 42.6174 31.8332 42.2859 33.2011C41.9544 34.5689 42.0061 36.0016 42.4353 37.342L39.1117 40.6656C38.179 38.923 37.6924 36.9765 37.6953 35Z" fill="#70FF2D" fill-opacity="0.9"/>
<path d="M79.4082 33.2363C77.0019 28.1686 74.1379 24.0363 70.8161 20.8394L60.9627 30.6934C61.7933 32.8646 61.9774 35.2298 61.4928 37.5034C61.0082 39.7769 59.8756 41.8615 58.2318 43.5053C56.588 45.1491 54.5034 46.2817 52.2299 46.7663C49.9563 47.2509 47.5911 47.0668 45.4199 46.2362L37.0623 54.5939C40.9396 56.3881 45.2522 57.2852 50 57.2852C63.1386 57.2852 72.9414 50.4424 79.4082 36.7568C79.6681 36.2064 79.803 35.6053 79.803 34.9966C79.803 34.3879 79.6681 33.7867 79.4082 33.2363Z" fill="#70FF2D" fill-opacity="0.9"/>
</svg>
