<svg width="100" height="100" viewBox="0 0 100 100" fill="none" xmlns="http://www.w3.org/2000/svg">
<g filter="url(#filter0_ii_11_68)">
<circle cx="50" cy="50" r="49.5" fill="white" stroke="#6CF52B"/>
<path d="M28.7159 73.0909C28.6307 72.3712 28.285 71.8125 27.679 71.4148C27.0729 71.017 26.3295 70.8182 25.4489 70.8182C24.8049 70.8182 24.2415 70.9223 23.7585 71.1307C23.2803 71.339 22.9063 71.6255 22.6364 71.9901C22.3712 72.3546 22.2386 72.7689 22.2386 73.233C22.2386 73.6212 22.331 73.955 22.5156 74.2344C22.705 74.509 22.9465 74.7386 23.2401 74.9233C23.5336 75.1032 23.8414 75.2524 24.1634 75.3707C24.4853 75.4844 24.7812 75.5767 25.0511 75.6477L26.5284 76.0455C26.9072 76.1449 27.3286 76.2822 27.7926 76.4574C28.2614 76.6326 28.7088 76.8717 29.1349 77.1747C29.5658 77.473 29.9209 77.8565 30.2003 78.3253C30.4796 78.794 30.6193 79.3693 30.6193 80.0511C30.6193 80.8371 30.4134 81.5473 30.0014 82.1818C29.5942 82.8163 28.9976 83.3205 28.2116 83.6946C27.4304 84.0687 26.4811 84.2557 25.3636 84.2557C24.322 84.2557 23.42 84.0876 22.6577 83.7514C21.9001 83.4152 21.3035 82.9465 20.8679 82.3452C20.437 81.7438 20.1932 81.0455 20.1364 80.25H21.9545C22.0019 80.7992 22.1866 81.2538 22.5085 81.6136C22.8352 81.9687 23.2472 82.2339 23.7443 82.4091C24.2462 82.5795 24.786 82.6648 25.3636 82.6648C26.036 82.6648 26.6397 82.5559 27.1747 82.3381C27.7098 82.1155 28.1335 81.8078 28.446 81.4148C28.7585 81.017 28.9148 80.553 28.9148 80.0227C28.9148 79.5398 28.7798 79.1468 28.5099 78.8438C28.2401 78.5407 27.8849 78.2945 27.4446 78.1051C27.0043 77.9157 26.5284 77.75 26.017 77.608L24.2273 77.0966C23.0909 76.7699 22.1913 76.3035 21.5284 75.6974C20.8655 75.0914 20.5341 74.2983 20.5341 73.3182C20.5341 72.5038 20.7543 71.7936 21.1946 71.1875C21.6397 70.5767 22.2363 70.1032 22.9844 69.767C23.7372 69.4261 24.5777 69.2557 25.5057 69.2557C26.4432 69.2557 27.2765 69.4238 28.0057 69.7599C28.7348 70.0914 29.3125 70.5459 29.7386 71.1236C30.1695 71.7012 30.3968 72.357 30.4205 73.0909H28.7159ZM33.288 84V73.0909H34.9641V84H33.288ZM34.1403 71.2727C33.8136 71.2727 33.5318 71.1615 33.2951 70.9389C33.0631 70.7164 32.9471 70.4489 32.9471 70.1364C32.9471 69.8239 33.0631 69.5563 33.2951 69.3338C33.5318 69.1113 33.8136 69 34.1403 69C34.467 69 34.7463 69.1113 34.9783 69.3338C35.2151 69.5563 35.3335 69.8239 35.3335 70.1364C35.3335 70.4489 35.2151 70.7164 34.9783 70.9389C34.7463 71.1615 34.467 71.2727 34.1403 71.2727ZM37.7216 84V82.7216L43.9148 74.767V74.6534H37.9205V73.0909H46.0739V74.4261L40.0511 82.3239V82.4375H46.2727V84H37.7216ZM53.1158 84.2273C52.0646 84.2273 51.1579 83.9953 50.3956 83.5312C49.638 83.0625 49.0533 82.4091 48.6413 81.571C48.2341 80.7282 48.0305 79.7481 48.0305 78.6307C48.0305 77.5133 48.2341 76.5284 48.6413 75.6761C49.0533 74.8191 49.6262 74.1515 50.3601 73.6733C51.0987 73.1903 51.9605 72.9489 52.9453 72.9489C53.5135 72.9489 54.0746 73.0436 54.6286 73.233C55.1825 73.4223 55.6868 73.7301 56.1413 74.1562C56.5959 74.5777 56.9581 75.1364 57.228 75.8324C57.4979 76.5284 57.6328 77.3854 57.6328 78.4034V79.1136H49.2237V77.6648H55.9283C55.9283 77.0492 55.8052 76.5 55.5589 76.017C55.3175 75.5341 54.9718 75.1529 54.522 74.8736C54.0769 74.5942 53.5514 74.4545 52.9453 74.4545C52.2777 74.4545 51.7 74.6203 51.2124 74.9517C50.7294 75.2784 50.3577 75.7045 50.0973 76.2301C49.8369 76.7557 49.7067 77.3191 49.7067 77.9205V78.8864C49.7067 79.7102 49.8487 80.4086 50.1328 80.9815C50.4216 81.5497 50.8217 81.983 51.3331 82.2812C51.8445 82.5748 52.4387 82.7216 53.1158 82.7216C53.5561 82.7216 53.9538 82.66 54.3089 82.5369C54.6688 82.4091 54.9789 82.2197 55.2393 81.9688C55.4998 81.7131 55.701 81.3958 55.843 81.017L57.4624 81.4716C57.2919 82.0208 57.0054 82.5038 56.603 82.9205C56.2005 83.3324 55.7034 83.6544 55.1115 83.8864C54.5196 84.1136 53.8544 84.2273 53.1158 84.2273ZM64.4439 83.0057V73.6307H66.0348V83.0057H64.4439ZM60.5518 79.1136V77.5227H69.9268V79.1136H60.5518ZM77.6275 83.0057V73.6307H79.2184V83.0057H77.6275ZM73.7354 79.1136V77.5227H83.1104V79.1136H73.7354Z" fill="#6CF52B"/>
<path d="M73.705 22.425L77.4062 18.75L66.25 7.59375L62.575 11.295L66.25 15.0225L62.575 18.75L56.9838 13.1587L53.2825 9.43125L49.5812 13.1587L51.4188 15.0225L26.875 39.54C26.0432 40.3694 25.5136 41.4537 25.3708 42.6197C25.228 43.7856 25.4804 44.9657 26.0875 45.9713L29.5 51.72L23.5938 57.705L27.295 61.4062L33.28 55.5L39.0288 58.9387C39.8238 59.4106 40.7293 59.6641 41.6538 59.6738C42.3597 59.6848 43.0607 59.5534 43.7147 59.2872C44.3687 59.0211 44.9623 58.6258 45.46 58.125L69.9775 33.6075L71.8412 35.445L75.5687 31.7437L71.8412 28.0162L66.25 22.425L69.9775 18.75L73.705 22.425ZM66.25 29.8537L41.7325 54.3975L34.75 50.25L30.6025 43.2675L32.86 40.9838L40.2887 48.4125L44.0162 44.7113L36.5875 37.2825L40.2887 33.5812L47.7175 40.9838L51.4188 37.2825L43.99 29.8537L47.7175 26.1525L55.1463 33.5812L58.8475 29.8537L51.4188 22.425L55.1463 18.75L66.25 29.8537Z" fill="#7EFF42"/>
</g>
<defs>
<filter id="filter0_ii_11_68" x="0" y="-4" width="100" height="108" filterUnits="userSpaceOnUse" color-interpolation-filters="sRGB">
<feFlood flood-opacity="0" result="BackgroundImageFix"/>
<feBlend mode="normal" in="SourceGraphic" in2="BackgroundImageFix" result="shape"/>
<feColorMatrix in="SourceAlpha" type="matrix" values="0 0 0 0 0 0 0 0 0 0 0 0 0 0 0 0 0 0 127 0" result="hardAlpha"/>
<feOffset dy="4"/>
<feGaussianBlur stdDeviation="2.5"/>
<feComposite in2="hardAlpha" operator="arithmetic" k2="-1" k3="1"/>
<feColorMatrix type="matrix" values="0 0 0 0 0.421928 0 0 0 0 0.961111 0 0 0 0 0.168194 0 0 0 1 0"/>
<feBlend mode="normal" in2="shape" result="effect1_innerShadow_11_68"/>
<feColorMatrix in="SourceAlpha" type="matrix" values="0 0 0 0 0 0 0 0 0 0 0 0 0 0 0 0 0 0 127 0" result="hardAlpha"/>
<feOffset dy="-4"/>
<feGaussianBlur stdDeviation="2.5"/>
<feComposite in2="hardAlpha" operator="arithmetic" k2="-1" k3="1"/>
<feColorMatrix type="matrix" values="0 0 0 0 0.421928 0 0 0 0 0.961111 0 0 0 0 0.168194 0 0 0 1 0"/>
<feBlend mode="normal" in2="effect1_innerShadow_11_68" result="effect2_innerShadow_11_68"/>
</filter>
</defs>
</svg>
