<svg width="100" height="100" viewBox="0 0 100 100" fill="none" xmlns="http://www.w3.org/2000/svg">
<circle cx="50" cy="50" r="49.5" fill="white" stroke="#6CF52B"/>
<path d="M24.8864 23.0909V58H20.6591V27.5227H20.4545L11.9318 33.1818V28.8864L20.6591 23.0909H24.8864ZM46.3125 58.4773C43.7443 58.4773 41.5568 57.7784 39.75 56.3807C37.9432 54.9716 36.5625 52.9318 35.608 50.2614C34.6534 47.5795 34.1761 44.3409 34.1761 40.5455C34.1761 36.7727 34.6534 33.5511 35.608 30.8807C36.5739 28.1989 37.9602 26.1534 39.767 24.7443C41.5852 23.3239 43.767 22.6136 46.3125 22.6136C48.858 22.6136 51.0341 23.3239 52.8409 24.7443C54.6591 26.1534 56.0455 28.1989 57 30.8807C57.9659 33.5511 58.4489 36.7727 58.4489 40.5455C58.4489 44.3409 57.9716 47.5795 57.017 50.2614C56.0625 52.9318 54.6818 54.9716 52.875 56.3807C51.0682 57.7784 48.8807 58.4773 46.3125 58.4773ZM46.3125 54.7273C48.858 54.7273 50.8352 53.5 52.2443 51.0455C53.6534 48.5909 54.358 45.0909 54.358 40.5455C54.358 37.5227 54.0341 34.9489 53.3864 32.8239C52.75 30.6989 51.8295 29.0795 50.625 27.9659C49.4318 26.8523 47.9943 26.2955 46.3125 26.2955C43.7898 26.2955 41.8182 27.5398 40.3977 30.0284C38.9773 32.5057 38.267 36.0114 38.267 40.5455C38.267 43.5682 38.5852 46.1364 39.2216 48.25C39.858 50.3636 40.7727 51.9716 41.9659 53.0739C43.1705 54.1761 44.6193 54.7273 46.3125 54.7273ZM75.2216 51.8636V29.3636H79.0398V51.8636H75.2216ZM65.8807 42.5227V38.7045H88.3807V42.5227H65.8807Z" fill="#6CF52B"/>
<path d="M29.7159 68.0909C29.6307 67.3712 29.285 66.8125 28.679 66.4148C28.0729 66.017 27.3295 65.8182 26.4489 65.8182C25.8049 65.8182 25.2415 65.9223 24.7585 66.1307C24.2803 66.339 23.9063 66.6255 23.6364 66.9901C23.3712 67.3546 23.2386 67.7689 23.2386 68.233C23.2386 68.6212 23.331 68.955 23.5156 69.2344C23.705 69.509 23.9465 69.7386 24.2401 69.9233C24.5336 70.1032 24.8414 70.2524 25.1634 70.3707C25.4853 70.4844 25.7812 70.5767 26.0511 70.6477L27.5284 71.0455C27.9072 71.1449 28.3286 71.2822 28.7926 71.4574C29.2614 71.6326 29.7088 71.8717 30.1349 72.1747C30.5658 72.473 30.9209 72.8565 31.2003 73.3253C31.4796 73.794 31.6193 74.3693 31.6193 75.0511C31.6193 75.8371 31.4134 76.5473 31.0014 77.1818C30.5942 77.8163 29.9976 78.3205 29.2116 78.6946C28.4304 79.0687 27.4811 79.2557 26.3636 79.2557C25.322 79.2557 24.42 79.0876 23.6577 78.7514C22.9001 78.4152 22.3035 77.9465 21.8679 77.3452C21.437 76.7438 21.1932 76.0455 21.1364 75.25H22.9545C23.0019 75.7992 23.1866 76.2538 23.5085 76.6136C23.8352 76.9687 24.2472 77.2339 24.7443 77.4091C25.2462 77.5795 25.786 77.6648 26.3636 77.6648C27.036 77.6648 27.6397 77.5559 28.1747 77.3381C28.7098 77.1155 29.1335 76.8078 29.446 76.4148C29.7585 76.017 29.9148 75.553 29.9148 75.0227C29.9148 74.5398 29.7798 74.1468 29.5099 73.8438C29.2401 73.5407 28.8849 73.2945 28.4446 73.1051C28.0043 72.9157 27.5284 72.75 27.017 72.608L25.2273 72.0966C24.0909 71.7699 23.1913 71.3035 22.5284 70.6974C21.8655 70.0914 21.5341 69.2983 21.5341 68.3182C21.5341 67.5038 21.7543 66.7936 22.1946 66.1875C22.6397 65.5767 23.2363 65.1032 23.9844 64.767C24.7372 64.4261 25.5777 64.2557 26.5057 64.2557C27.4432 64.2557 28.2765 64.4238 29.0057 64.7599C29.7348 65.0914 30.3125 65.5459 30.7386 66.1236C31.1695 66.7012 31.3968 67.357 31.4205 68.0909H29.7159ZM34.288 83.0909V68.0909H35.9073V69.8239H36.1062C36.2293 69.6345 36.3997 69.393 36.6175 69.0994C36.8401 68.8011 37.1573 68.536 37.5692 68.304C37.9859 68.0672 38.5494 67.9489 39.2596 67.9489C40.1781 67.9489 40.9878 68.1785 41.6886 68.6378C42.3893 69.0971 42.9362 69.7481 43.3292 70.5909C43.7222 71.4337 43.9187 72.428 43.9187 73.5739C43.9187 74.7292 43.7222 75.7306 43.3292 76.5781C42.9362 77.4209 42.3917 78.0743 41.6957 78.5384C40.9996 78.9976 40.1971 79.2273 39.288 79.2273C38.5872 79.2273 38.0262 79.1113 37.6048 78.8793C37.1834 78.6425 36.859 78.375 36.6317 78.0767C36.4045 77.7737 36.2293 77.5227 36.1062 77.3239H35.9641V83.0909H34.288ZM35.9357 73.5455C35.9357 74.3693 36.0565 75.0961 36.2979 75.7259C36.5394 76.3509 36.8922 76.8409 37.3562 77.196C37.8202 77.5464 38.3884 77.7216 39.0607 77.7216C39.7615 77.7216 40.3462 77.5369 40.815 77.1676C41.2885 76.7936 41.6436 76.2917 41.8803 75.6619C42.1218 75.0275 42.2425 74.322 42.2425 73.5455C42.2425 72.7784 42.1242 72.0871 41.8874 71.4716C41.6554 70.8513 41.3027 70.3613 40.8292 70.0014C40.3604 69.6368 39.771 69.4545 39.0607 69.4545C38.3789 69.4545 37.806 69.6274 37.342 69.973C36.878 70.3139 36.5276 70.7921 36.2908 71.4077C36.0541 72.0185 35.9357 72.7311 35.9357 73.5455ZM51.0494 79.2273C49.9982 79.2273 49.0915 78.9953 48.3292 78.5312C47.5716 78.0625 46.9869 77.4091 46.5749 76.571C46.1677 75.7282 45.9641 74.7481 45.9641 73.6307C45.9641 72.5133 46.1677 71.5284 46.5749 70.6761C46.9869 69.8191 47.5598 69.1515 48.2937 68.6733C49.0323 68.1903 49.8941 67.9489 50.8789 67.9489C51.4471 67.9489 52.0082 68.0436 52.5621 68.233C53.1161 68.4223 53.6204 68.7301 54.0749 69.1562C54.5295 69.5777 54.8917 70.1364 55.1616 70.8324C55.4315 71.5284 55.5664 72.3854 55.5664 73.4034V74.1136H47.1573V72.6648H53.8619C53.8619 72.0492 53.7388 71.5 53.4925 71.017C53.2511 70.5341 52.9054 70.1529 52.4556 69.8736C52.0105 69.5942 51.485 69.4545 50.8789 69.4545C50.2113 69.4545 49.6336 69.6203 49.146 69.9517C48.663 70.2784 48.2913 70.7045 48.0309 71.2301C47.7705 71.7557 47.6403 72.3191 47.6403 72.9205V73.8864C47.6403 74.7102 47.7823 75.4086 48.0664 75.9815C48.3552 76.5497 48.7553 76.983 49.2667 77.2812C49.7781 77.5748 50.3723 77.7216 51.0494 77.7216C51.4897 77.7216 51.8874 77.66 52.2425 77.5369C52.6024 77.4091 52.9125 77.2197 53.1729 76.9688C53.4334 76.7131 53.6346 76.3958 53.7766 76.017L55.396 76.4716C55.2255 77.0208 54.939 77.5038 54.5366 77.9205C54.1341 78.3324 53.637 78.6544 53.0451 78.8864C52.4532 79.1136 51.788 79.2273 51.0494 79.2273ZM62.69 79.2273C61.6388 79.2273 60.7321 78.9953 59.9698 78.5312C59.2122 78.0625 58.6275 77.4091 58.2156 76.571C57.8084 75.7282 57.6048 74.7481 57.6048 73.6307C57.6048 72.5133 57.8084 71.5284 58.2156 70.6761C58.6275 69.8191 59.2004 69.1515 59.9343 68.6733C60.6729 68.1903 61.5347 67.9489 62.5195 67.9489C63.0877 67.9489 63.6488 68.0436 64.2028 68.233C64.7567 68.4223 65.261 68.7301 65.7156 69.1562C66.1701 69.5777 66.5323 70.1364 66.8022 70.8324C67.0721 71.5284 67.207 72.3854 67.207 73.4034V74.1136H58.7979V72.6648H65.5025C65.5025 72.0492 65.3794 71.5 65.1332 71.017C64.8917 70.5341 64.546 70.1529 64.0962 69.8736C63.6512 69.5942 63.1256 69.4545 62.5195 69.4545C61.8519 69.4545 61.2743 69.6203 60.7866 69.9517C60.3036 70.2784 59.9319 70.7045 59.6715 71.2301C59.4111 71.7557 59.2809 72.3191 59.2809 72.9205V73.8864C59.2809 74.7102 59.4229 75.4086 59.707 75.9815C59.9959 76.5497 60.396 76.983 60.9073 77.2812C61.4187 77.5748 62.0129 77.7216 62.69 77.7216C63.1303 77.7216 63.5281 77.66 63.8832 77.5369C64.243 77.4091 64.5531 77.2197 64.8136 76.9688C65.074 76.7131 65.2752 76.3958 65.4173 76.017L67.0366 76.4716C66.8661 77.0208 66.5797 77.5038 66.1772 77.9205C65.7747 78.3324 65.2776 78.6544 64.6857 78.8864C64.0939 79.1136 63.4286 79.2273 62.69 79.2273ZM73.8761 79.2273C72.967 79.2273 72.1644 78.9976 71.4684 78.5384C70.7724 78.0743 70.2279 77.4209 69.8349 76.5781C69.4419 75.7306 69.2454 74.7292 69.2454 73.5739C69.2454 72.428 69.4419 71.4337 69.8349 70.5909C70.2279 69.7481 70.7747 69.0971 71.4755 68.6378C72.1763 68.1785 72.9859 67.9489 73.9045 67.9489C74.6147 67.9489 75.1758 68.0672 75.5877 68.304C76.0044 68.536 76.3216 68.8011 76.5394 69.0994C76.762 69.393 76.9348 69.6345 77.0579 69.8239H77.1999V64.4545H78.8761V79H77.2567V77.3239H77.0579C76.9348 77.5227 76.7596 77.7737 76.5323 78.0767C76.305 78.375 75.9807 78.6425 75.5593 78.8793C75.1379 79.1113 74.5768 79.2273 73.8761 79.2273ZM74.1033 77.7216C74.7757 77.7216 75.3439 77.5464 75.8079 77.196C76.2719 76.8409 76.6246 76.3509 76.8661 75.7259C77.1076 75.0961 77.2283 74.3693 77.2283 73.5455C77.2283 72.7311 77.11 72.0185 76.8732 71.4077C76.6365 70.7921 76.2861 70.3139 75.8221 69.973C75.3581 69.6274 74.7852 69.4545 74.1033 69.4545C73.3931 69.4545 72.8013 69.6368 72.3278 70.0014C71.859 70.3613 71.5063 70.8513 71.2695 71.4716C71.0375 72.0871 70.9215 72.7784 70.9215 73.5455C70.9215 74.322 71.0399 75.0275 71.2766 75.6619C71.5181 76.2917 71.8732 76.7936 72.342 77.1676C72.8155 77.5369 73.4026 77.7216 74.1033 77.7216Z" fill="#6CF52B"/>
</svg>
